<?xml version="1.0" encoding="UTF-8" standalone="no"?>
<!DOCTYPE svg PUBLIC "-//W3C//DTD SVG 1.1//EN" "http://www.w3.org/Graphics/SVG/1.1/DTD/svg11.dtd">
<svg width="100%" height="100%" viewBox="0 0 647 218" version="1.1" xmlns="http://www.w3.org/2000/svg" xmlns:xlink="http://www.w3.org/1999/xlink" xml:space="preserve" xmlns:serif="http://www.serif.com/" style="fill-rule:evenodd;clip-rule:evenodd;stroke-linejoin:round;stroke-miterlimit:2;">
    <g transform="matrix(1,0,0,1,-186.272,-222.862)">
        <path d="M311.621,375.685C315.157,375.966 316.589,374.687 316.808,371.463C318.026,353.529 319.401,335.606 320.683,317.677C321.383,307.883 322.001,298.082 322.674,288.285C322.73,287.464 322.653,286.426 323.107,285.873C327.273,280.8 331.919,276.215 336.847,271.943C337.301,272.145 337.756,272.348 338.21,272.55C337.758,280.756 337.449,288.973 336.827,297.166C335.013,321.062 333.062,344.949 331.195,368.841C330.793,373.986 330.349,379.137 330.239,384.292C330.15,388.479 328.505,390.223 324.175,390.103C310.354,389.722 296.526,389.556 282.7,389.392C252.212,389.028 221.724,388.656 191.234,388.452C186.879,388.423 185.983,386.905 186.345,382.733C188.316,360.022 190.008,337.287 191.742,314.556C193.147,296.146 194.549,277.734 195.775,259.311C196.034,255.422 197.848,254.062 201.446,254.075C222.609,254.148 243.773,254.143 264.937,254.236C277.598,254.291 290.258,254.465 302.919,254.611C304.665,254.631 306.505,254.28 308.979,255.756C301.236,261.299 295.433,267.823 284.813,267.474C261.006,266.689 237.158,267.241 213.328,267.038C208.933,267 207.44,268.166 207.121,272.865C205.487,296.932 203.329,320.963 201.451,345.015C200.829,352.978 200.775,360.995 199.914,368.928C199.454,373.162 200.906,374.017 204.724,374.05C232.048,374.288 259.371,374.674 286.693,375.066C294.853,375.184 303.011,375.475 311.621,375.685Z" style="fill-rule:nonzero;"/>
    </g>
    <g transform="matrix(1,0,0,1,-186.272,-222.862)">
        <path d="M784.355,380.597C798.381,381.137 811.966,381.214 826.521,382.99C823.781,384.864 821.789,384.333 819.947,384.334C792.622,384.351 765.292,384.014 737.972,384.39C710.335,384.77 682.788,387.242 655.207,388.932C627.448,390.633 599.848,393.757 572.318,397.453C544.447,401.194 516.849,406.593 489.406,412.781C459.824,419.45 430.835,428.114 402.388,438.551C396.877,440.573 391.728,440.249 386.253,439.323C371.496,436.825 356.706,434.518 341.94,432.073C340.573,431.847 338.932,431.926 337.757,429.816C344.357,427.773 350.722,425.54 357.226,423.831C403.274,411.73 449.898,402.552 496.985,395.444C530.249,390.423 563.683,387.161 597.139,384.148C619.011,382.178 641.001,381.457 662.966,380.57C699.783,379.083 736.593,379.805 773.408,380.006C776.901,380.025 780.391,380.379 784.355,380.597Z" style="fill-rule:nonzero;"/>
    </g>
    <g transform="matrix(1,0,0,1,-186.272,-222.862)">
        <path d="M446.73,291.419C453.129,300.691 451.883,310.804 450.98,320.696C450.183,329.433 449.027,338.104 445.072,346.281C437.785,361.344 420.327,367.236 403.28,363.895C401.975,363.639 400.647,363.42 399.393,362.996C396.571,362.042 395.412,363.158 395.111,365.948C394.523,371.403 393.57,376.826 393.176,382.292C392.874,386.469 391.045,388.254 386.891,388.131C381.901,387.982 376.903,387.999 371.911,388.098C368.445,388.167 367.205,386.809 367.607,383.264C369.537,366.254 371.479,349.251 373.993,332.309C376.188,317.52 377.974,302.664 379.611,287.802C380.041,283.896 381.53,282.596 385.26,282.798C389.243,283.014 393.248,282.822 397.242,282.849C400.277,282.869 403.698,282.275 403.614,287.383C419.105,280.302 433.558,278.337 446.73,291.419M422.173,336.476C424.735,328.657 425.563,320.6 425.741,312.409C425.964,302.106 421.679,299.606 411.217,301.839C407.386,302.656 402.993,303.943 402.395,309.345C401.28,319.429 400.043,329.501 398.684,339.555C398.311,342.31 399.422,343.561 401.817,344.32C409.503,346.753 417.119,344.046 422.173,336.476Z" style="fill:rgb(255,135,0);fill-rule:nonzero;"/>
    </g>
    <g transform="matrix(1,0,0,1,-186.272,-222.862)">
        <path d="M600.76,350.938C596.211,340.611 597.747,330.342 599.147,320.096C599.983,313.976 601.233,307.963 604,302.35C610.476,289.21 621.988,284.288 635.652,282.997C642.643,282.337 649.633,282.578 656.53,284.098C670.927,287.271 678.864,298.079 677.697,313.537C677.184,320.328 676.272,327.137 674.899,333.806C671.123,352.134 659.324,362.954 640.604,364.894C630.288,365.964 619.945,365.722 610.395,360.516C606.334,358.302 602.892,355.581 600.76,350.938M632.872,345.792C640.865,345.784 645.678,343.051 647.724,336.633C650.461,328.051 651.467,319.112 651.564,310.149C651.624,304.519 648.391,301.649 642.884,301.292C634.41,300.743 630.184,303.406 627.478,311.51C624.88,319.291 624.275,327.412 624.029,335.559C623.858,341.199 626.306,344.75 632.872,345.792Z" style="fill:rgb(255,135,0);fill-rule:nonzero;"/>
    </g>
    <g transform="matrix(1,0,0,1,-186.272,-222.862)">
        <path d="M565.634,362.965C552.324,366.037 539.49,366.597 527.145,360.812C518.711,356.86 514.305,349.862 513.849,340.643C513.234,328.22 514.874,316.036 519.42,304.42C524.938,290.322 536.717,284.8 550.648,283.064C558.739,282.056 566.906,282.301 574.912,284.585C586.12,287.783 592.873,296.192 593.365,307.806C593.836,318.909 592.101,329.682 588.735,340.228C585.075,351.692 577.516,359.246 565.634,362.965M567.385,317.004C567.739,314.019 567.896,311.033 567.376,308.05C566.847,305.018 565.296,302.575 562.27,301.864C554.466,300.03 547.013,301.069 544.057,310.15C541.312,318.583 539.672,327.231 540.168,336.166C540.474,341.674 542.738,344.322 548.055,345.529C554.019,346.884 560.744,343.468 563.307,337.861C566.211,331.506 566.219,324.601 567.385,317.004Z" style="fill:rgb(255,135,0);fill-rule:nonzero;"/>
    </g>
    <g transform="matrix(1,0,0,1,-186.272,-222.862)">
        <path d="M332.7,250.24C339.165,253.587 339.884,257.369 335.263,262.529C315.285,284.834 295.254,307.092 275.295,329.414C268.421,337.103 261.741,344.965 254.892,352.677C250.842,357.238 250.004,357.047 246.616,351.916C236.533,336.646 227.634,320.624 217.079,305.651C212.815,299.602 214.945,295.417 222.489,294.603C234.301,293.329 243.958,298.019 252.373,305.722C257.578,310.486 257.454,310.664 262.583,305.462C280.118,287.674 297.747,269.992 318.878,256.33C323.055,253.629 327.201,250.807 332.7,250.24Z" style="fill:rgb(255,135,0);fill-rule:nonzero;"/>
    </g>
    <g transform="matrix(1,0,0,1,-186.272,-222.862)">
        <path d="M695.206,363.929C686.991,363.644 686.749,363.61 687.829,356.003C689.885,341.525 690.735,326.896 693.484,312.503C694.935,304.911 694.388,304.316 686.519,304.238C682.492,304.198 680.436,303.024 681.577,298.629C681.864,297.52 681.661,296.292 681.871,295.154C683.864,284.375 681.607,284.52 693.008,284.74C696.444,284.807 697.802,283.447 697.847,280.079C697.875,277.941 698.401,275.796 698.83,273.679C701.336,261.315 708.233,254.672 720.85,252.464C727.801,251.247 734.726,251.416 741.703,252.541C745.227,253.109 746.728,254.64 746.236,258.174C745.801,261.302 745.43,264.44 745.098,267.581C744.857,269.863 743.709,270.716 741.412,270.501C738.766,270.253 736.094,270.175 733.436,270.201C730.51,270.229 727.695,271.065 725.825,273.354C723.519,276.175 722.401,279.8 723.641,283.179C724.708,286.088 728.053,284.767 730.366,284.778C741.075,284.831 741.168,284.719 739.331,294.838C739.035,296.471 738.896,298.136 738.726,299.79C738.414,302.829 736.682,304.151 733.705,304.103C730.876,304.058 728.029,304.275 725.221,304.029C721.356,303.689 719.863,305.575 719.396,309.108C717.413,324.105 715.217,339.075 713.344,354.085C712.109,363.975 712.297,363.999 702.169,363.963C700.004,363.955 697.84,363.944 695.206,363.929Z" style="fill:rgb(255,135,0);fill-rule:nonzero;"/>
    </g>
    <g transform="matrix(1,0,0,1,-186.272,-222.862)">
        <path d="M468.924,393.12C435.057,398.133 401.929,404.643 369.059,412.526C351.73,416.682 334.514,421.212 317.542,426.651C315.747,427.226 313.945,427.447 312.125,427.071C301.859,424.951 291.599,422.801 281.349,420.608C280.435,420.413 279.603,419.836 278.702,418.618C380.441,386.228 485.035,376.26 592.152,377.811C589.888,380.334 587.815,380.041 585.936,380.167C560.354,381.888 534.881,384.652 509.44,387.812C496.066,389.474 482.65,390.79 468.924,393.12Z" style="fill:rgb(255,135,0);fill-rule:nonzero;"/>
    </g>
    <g transform="matrix(1,0,0,1,-186.272,-222.862)">
        <path d="M777.825,289.073C778.644,285.077 781.542,285.623 783.89,285.826C788.509,286.225 790.558,284.967 791.082,279.748C792.412,266.47 792.751,266.504 806.171,265.121C817.301,263.974 817.801,264.557 815.956,275.766C815.448,278.848 815.268,281.983 814.923,285.238C819.753,286.641 824.252,285.755 828.676,285.916C832.113,286.042 833.528,287.242 832.791,290.863C832.062,294.439 831.62,298.093 831.345,301.735C831.117,304.746 829.739,305.747 826.826,305.58C823.005,305.36 819.165,305.499 815.336,305.4C812.682,305.332 811.545,306.424 811.233,309.174C810.106,319.089 808.66,328.967 807.473,338.876C806.717,345.187 809.442,347.972 816.085,348.024C824.176,348.086 824.176,348.086 823.348,356.2C822.37,365.796 822.372,365.915 812.754,366.941C809.298,367.309 805.738,367.332 802.282,366.97C786.762,365.345 780.372,355.522 782.945,337.75C784.254,328.706 785.34,319.631 786.61,310.581C787.1,307.089 786.194,304.895 782.225,305.462C776.785,306.238 775.503,303.835 776.6,298.909C777.284,295.841 777.396,292.647 777.825,289.073Z" style="fill-rule:nonzero;"/>
    </g>
    <g transform="matrix(1,0,0,1,-186.272,-222.862)">
        <path d="M503.352,282.987C507.521,282.202 511.223,281.61 515.121,282.46C518.019,283.092 519.294,284.22 518.471,287.194C518.206,288.155 518.011,289.136 517.799,290.111C516.85,294.49 517.123,299.826 514.635,302.994C511.869,306.517 506.234,303.656 501.884,304.292C493.442,305.527 487.062,311.691 486.002,319.987C484.358,332.847 482.665,345.702 481.098,358.572C480.715,361.713 479.494,363.42 476.064,363.326C470.575,363.174 465.078,363.172 459.587,363.269C456.252,363.328 455.199,361.925 455.634,358.681C457.403,345.5 459.026,332.3 460.733,319.111C462.034,309.061 463.552,299.034 464.626,288.96C465.088,284.63 466.78,282.642 471.227,282.962C474.207,283.176 477.223,283.105 480.211,282.938C485.057,282.667 489.605,282.616 488.707,290.321C493.936,287.491 497.761,283.828 503.352,282.987Z" style="fill:rgb(255,135,0);fill-rule:nonzero;"/>
    </g>
    <g transform="matrix(1,0,0,1,-186.272,-222.862)">
        <path d="M761.005,285.021C773.212,284.911 773.562,284.952 772.224,296.393C769.713,317.855 766.742,339.263 763.995,360.697C763.622,363.605 762.389,365.164 759.169,365.055C753.846,364.875 748.514,364.931 743.186,364.987C739.692,365.023 738.498,363.503 738.955,360.023C741.987,336.965 744.965,313.898 747.828,290.818C748.35,286.612 750.021,284.433 754.526,284.973C756.496,285.209 758.517,285.02 761.005,285.021Z" style="fill-rule:nonzero;"/>
    </g>
    <g transform="matrix(1,0,0,1,-186.272,-222.862)">
        <path d="M754.457,273.742C748.683,267.345 748.612,259.047 753.986,253.803C759.511,248.41 770.067,248.264 775.397,253.569C779.175,257.329 779.025,262.119 777.9,266.66C776.578,271.999 772.299,274.899 767.189,275.977C762.954,276.871 758.558,276.78 754.457,273.742Z" style="fill-rule:nonzero;"/>
    </g>
    <g transform="matrix(1,0,0,1,-186.272,-222.862)">
        <path d="M342.304,235.337C344.821,232.66 347.025,230.165 349.432,227.885C350.927,226.469 352.754,226.309 354.308,227.956C355.686,229.417 355.502,231.098 354.281,232.465C350.522,236.677 346.697,240.834 342.792,244.911C341.406,246.357 339.588,246.856 337.901,245.32C336.252,243.819 336.465,241.985 337.716,240.392C339.045,238.7 340.613,237.196 342.304,235.337Z" style="fill-rule:nonzero;"/>
    </g>
    <g transform="matrix(1,0,0,1,-186.272,-222.862)">
        <path d="M328.348,223.724C333.128,221.93 334.735,222.861 334.241,227.221C333.722,231.808 332.734,236.351 331.773,240.875C331.373,242.757 330.231,244.4 327.955,243.874C325.87,243.392 325.059,241.658 325.378,239.657C326.211,234.44 327.193,229.246 328.348,223.724Z" style="fill-rule:nonzero;"/>
    </g>
    <g transform="matrix(1,0,0,1,-186.272,-222.862)">
        <path d="M346.905,248.697C350.457,248.226 353.575,247.682 356.716,247.408C358.764,247.229 360.88,247.472 361.154,250.212C361.397,252.638 360.099,253.955 357.78,254.304C354.498,254.799 351.199,255.184 347.924,255.717C345.342,256.137 342.56,256.552 341.886,253.238C341.209,249.91 343.772,249.054 346.905,248.697Z" style="fill-rule:nonzero;"/>
    </g>
</svg>
